<?xml version="1.0" encoding="utf-8"?>
<!-- Generator: Adobe Illustrator 27.1.1, SVG Export Plug-In . SVG Version: 6.00 Build 0)  -->
<svg version="1.1" id="Layer_1" xmlns="http://www.w3.org/2000/svg" xmlns:xlink="http://www.w3.org/1999/xlink" x="0px" y="0px"
	 viewBox="0 0 68 68" style="enable-background:new 0 0 68 68;" xml:space="preserve">
<style type="text/css">
	.st0{fill:none;stroke:#231F20;stroke-width:3;}
</style>
<path id="Icon_material-account-circle" class="st0" d="M34,1.5C16,1.5,1.5,16.1,1.5,34S16,66.5,34,66.5S66.5,51.9,66.5,34
	S51.9,1.6,34,1.5z M34,12.3c5.2,0,9.3,4.2,9.3,9.3s-4.1,9.3-9.3,9.3s-9.3-4.2-9.3-9.3l0,0C24.6,16.4,28.8,12.3,34,12.3L34,12.3z
	 M34,56.3c-7.6,0-14.5-3.7-18.7-10c0.1-6.1,12.5-9.6,18.7-9.6s18.6,3.4,18.7,9.6C48.5,52.6,41.5,56.3,34,56.3z"/>
</svg>
