<?xml version="1.0" encoding="utf-8"?>
<!-- Generator: Adobe Illustrator 27.1.1, SVG Export Plug-In . SVG Version: 6.00 Build 0)  -->
<svg version="1.1" id="Layer_1" xmlns="http://www.w3.org/2000/svg" xmlns:xlink="http://www.w3.org/1999/xlink" x="0px" y="0px"
	 viewBox="0 0 57.5 68" style="enable-background:new 0 0 57.5 68;" xml:space="preserve">
<style type="text/css">
	.st0{fill:none;stroke:#231F20;stroke-width:3;}
</style>
<path id="Icon_ionic-md-notifications-outline" class="st0" d="M28.8,1.5c-2.6,0-4.7,2-4.8,4.7c0,0.1,0,0.1,0,0.2v2.2
	C14.6,10.8,8,19.3,8,29.1v17.8l-6.3,6.6v3.2H56v-3.2l-6.5-6.4V29.2c0-9.7-6.6-18.3-16-20.5V6.4c0.1-2.6-2-4.9-4.6-4.9
	C28.9,1.5,28.9,1.5,28.8,1.5z M22.4,60.1c0,3.5,2.9,6.5,6.4,6.5s6.3-2.9,6.3-6.5"/>
</svg>
